<?xml version="1.0" encoding="UTF-8"?>
<svg version="1.1" xmlns="http://www.w3.org/2000/svg" width="945" height="1109">
<path d="M0 0 C1.0828125 0.69738281 2.165625 1.39476562 3.28125 2.11328125 C18.86636206 12.34613772 34.05440335 23.34382958 47.79296875 35.97265625 C49.72829285 37.75041414 51.69403016 39.47576252 53.6875 41.1875 C64.40455045 50.55949553 74.61369461 60.28633829 84 71 C84.47501953 71.53560547 84.95003906 72.07121094 85.43945312 72.62304688 C101.87384653 91.17940412 116.49360455 111.60016779 129 133 C129.53343018 133.90661377 129.53343018 133.90661377 130.07763672 134.83154297 C143.4898277 157.78026819 154.52853153 181.81324197 163 207 C163.36319336 208.07846191 163.72638672 209.15692383 164.10058594 210.26806641 C170.9446562 230.89008627 175.86093557 251.85488066 179.25 273.3125 C179.40114258 274.26382812 179.55228516 275.21515625 179.70800781 276.1953125 C182.50919291 295.08908464 183.37772622 313.92017006 183.3125 333 C183.30976578 334.67027756 183.30976578 334.67027756 183.30697632 336.3742981 C183.25832373 354.08811858 182.64910271 371.45802102 180 389 C179.82307617 390.1741748 179.64615234 391.34834961 179.46386719 392.55810547 C173.56036264 430.41088722 162.58890622 467.4318566 146 502 C145.54238281 502.96067383 145.08476563 503.92134766 144.61328125 504.91113281 C136.04321103 522.78945157 126.27978039 539.70157957 115 556 C114.59281738 556.5887793 114.18563477 557.17755859 113.76611328 557.78417969 C95.98411847 583.36034517 75.38924224 607.38995841 52 628 C51.45166504 628.48774902 50.90333008 628.97549805 50.33837891 629.47802734 C9.77755272 665.45544509 -38.6900116 691.96345143 -90 709 C-91.49539307 709.49693359 -91.49539307 709.49693359 -93.02099609 710.00390625 C-118.41328238 718.27619308 -145.43484232 723.41541839 -172 726 C-172.87696533 726.0928125 -173.75393066 726.185625 -174.6574707 726.28125 C-244.45889258 732.75558478 -315.71363185 719.84611185 -379 690 C-379.95487305 689.55011719 -380.90974609 689.10023438 -381.89355469 688.63671875 C-399.73486628 680.14726366 -416.78297493 670.2939996 -433 659 C-433.53753906 658.62697754 -434.07507813 658.25395508 -434.62890625 657.86962891 C-459.22793719 640.7441646 -482.61648493 621.10855866 -502.53027344 598.65673828 C-503.52638466 597.53387935 -504.52719753 596.41517699 -505.53222656 595.30029297 C-519.06530436 580.28085038 -531.14629695 564.04950586 -542 547 C-542.41636719 546.35514648 -542.83273437 545.71029297 -543.26171875 545.04589844 C-576.65700624 493.12274499 -596.80345326 433.33444296 -603 372 C-603.14139404 370.67585083 -603.14139404 370.67585083 -603.28564453 369.32495117 C-604.35630937 357.76885763 -604.2438135 346.1579945 -604.25 334.5625 C-604.25067474 333.4265036 -604.25134949 332.2905072 -604.25204468 331.12008667 C-604.23518777 313.2273507 -603.67602861 295.72027841 -601 278 C-600.82307617 276.8258252 -600.64615234 275.65165039 -600.46386719 274.44189453 C-594.56036264 236.58911278 -583.58890622 199.5681434 -567 165 C-566.54238281 164.03932617 -566.08476563 163.07865234 -565.61328125 162.08886719 C-557.04321103 144.21054843 -547.27978039 127.29842043 -536 111 C-535.59281738 110.4112207 -535.18563477 109.82244141 -534.76611328 109.21582031 C-517.23799648 84.00481218 -497.00196684 60.37240399 -474 40 C-473.41782715 39.47841309 -472.8356543 38.95682617 -472.23583984 38.41943359 C-445.39952782 14.40875529 -415.1013714 -4.84951433 -383 -21 C-382.19481934 -21.40992188 -381.38963867 -21.81984375 -380.56005859 -22.2421875 C-351.43165393 -36.99513348 -319.84662637 -46.27956202 -288 -53 C-286.61095459 -53.29583984 -286.61095459 -53.29583984 -285.19384766 -53.59765625 C-278.82345962 -54.92826131 -272.43646123 -56.04014868 -266 -57 C-264.99340332 -57.15098145 -263.98680664 -57.30196289 -262.94970703 -57.45751953 C-173.07343235 -70.18713093 -76.18956477 -49.31420846 0 0 Z " fill="#FEFEFE" transform="translate(683,221)"/>
<path d="M0 0 C0.66 0 1.32 0 2 0 C3.515625 2.2734375 3.515625 2.2734375 5.25 5.375 C7.41844244 9.21113116 9.60787343 13.00983241 11.9375 16.75 C17.82931591 26.5644838 22.63055034 37.0050607 27.3125 47.4375 C27.80049072 48.51837891 27.80049072 48.51837891 28.29833984 49.62109375 C30.5260671 54.65749324 32.31765688 59.75950683 34 65 C34.50023612 66.48082927 35.00154085 67.96129797 35.50390625 69.44140625 C44.77212391 97.28223966 50.02573937 125.68649612 51.74731445 154.98535156 C51.97759249 157.73266867 52.43763227 160.30588636 53 163 C53.06463632 165.92883316 52.99939903 168.84093358 52.9375 171.76953125 C52.9964627 174.81716563 53.33731319 177.74078109 53.74609375 180.75805664 C54.34344175 186.0325246 54.40924747 191.36050119 54.60546875 196.66210938 C54.66154297 198.0146582 54.66154297 198.0146582 54.71875 199.39453125 C54.74904297 200.20768799 54.77933594 201.02084473 54.81054688 201.85864258 C54.93314784 204.1850947 54.93314784 204.1850947 56 207 C56.09360626 208.41282661 56.13321887 209.82961321 56.13803101 211.24552917 C56.14348434 212.11213669 56.14893768 212.9787442 56.15455627 213.87161255 C56.1555986 214.82043304 56.15664093 215.76925354 56.15771484 216.74682617 C56.16279556 217.7492485 56.16787628 218.75167084 56.17311096 219.7844696 C56.18383015 221.96972461 56.19244422 224.1549907 56.19923019 226.34026146 C56.21106869 229.83165932 56.23054767 233.3229362 56.25234985 236.81428528 C56.31370348 246.74553189 56.36741123 256.67677345 56.40136719 266.6081543 C56.49864325 293.55516842 56.63393358 320.23386544 60 347 C60.24695722 349.09989584 60.49292591 351.19990823 60.73779297 353.30004883 C61.81889032 362.52616948 63.62540782 370.97829034 66.8046875 379.70703125 C67.89945019 382.72299514 68.80360243 385.71280496 69.625 388.8125 C69.97111328 390.11767578 69.97111328 390.11767578 70.32421875 391.44921875 C70.54722656 392.29097656 70.77023437 393.13273437 71 394 C72.59769555 399.83467824 74.4358915 405.32693634 77.03515625 410.796875 C78.20152437 413.46016092 79.08057048 416.24171143 80 419 C72.41 418.34 64.82 417.68 57 417 C56.05598958 413.90755208 55.11197917 410.81510417 54.16796875 407.72265625 C53.32023721 405.02068917 52.43535294 402.34875655 51.515625 399.671875 C49.00222134 392.163429 47.36479608 384.42459065 45.61865234 376.70947266 C45.06256689 374.27402025 44.48047285 371.84635341 43.89453125 369.41796875 C41.04811604 357.05309816 40.06779277 344.5888087 39.07592773 331.97167969 C38.40611893 323.48865309 37.64324661 315.05299294 36.4375 306.625 C36.32269287 305.8007251 36.20788574 304.9764502 36.08959961 304.12719727 C35.48738448 300.13768251 34.50344405 296.72164018 33 293 C32.72320202 290.88067812 32.50007294 288.75407462 32.3125 286.625 C30.78850284 274.08609656 26.71935499 261.69063202 22 250 C21.92949905 266.58718848 21.87681276 283.17432736 21.84456348 299.76163006 C21.82918264 307.46573117 21.80826427 315.16973846 21.77368164 322.8737793 C21.74350695 329.59913941 21.72436145 336.3244315 21.71773452 343.04985744 C21.71386903 346.60139042 21.70497546 350.15272902 21.68280983 353.70419884 C21.52226492 380.51275587 24.11966829 404.94038773 34 430 C36.32522687 429.44353545 38.49662304 428.8194098 40.75 428 C66.98048435 419.92908174 97.19293649 429.03493015 120.625 441.1875 C133.57398987 448.14837754 147.24828859 457.16373099 157.6171875 467.6328125 C159.56102967 469.55564016 161.21849673 470.89960926 163.9765625 471.25390625 C169.34323552 470.94100835 173.78302469 468.95616855 178.5625 466.6328125 C182.03771576 464.98208502 185.5505903 463.47945175 189.09716797 461.99072266 C217.63722789 449.98740277 244.38203893 436.03772509 268.875 417 C269.46450439 416.54302734 270.05400879 416.08605469 270.66137695 415.61523438 C276.44749309 411.02829102 277.9220982 407.05462596 279 400 C279.27015676 396.36959444 279.28439193 392.76415284 279.25 389.125 C279.24540771 388.1043042 279.24081543 387.0836084 279.23608398 386.03198242 C279.16790438 366.20274322 279.16790438 366.20274322 276.47924805 346.63183594 C275.85437039 343.20026124 275.81873544 339.81595489 275.796875 336.33984375 C275.78990601 335.60159363 275.78293701 334.86334351 275.77575684 334.10272217 C275.75835249 331.71425696 275.75203037 329.3260261 275.75 326.9375 C275.74848938 325.71856552 275.74848938 325.71856552 275.74694824 324.4750061 C275.7573594 312.08373766 276.29363409 300.13490147 279 288 C279.13921875 287.3282373 279.2784375 286.65647461 279.421875 285.96435547 C281.50046596 276.11270039 285.19126268 267.76649023 290 259 C291.33864038 261.67728075 290.46678631 263.04491606 289.609375 265.78515625 C288.61886717 269.38527126 288.07167693 273.06106723 287.46484375 276.7421875 C287 279 287 279 286 280 C284.71888844 289.29036297 284.71721461 298.63819648 284.6875 308 C284.68257538 309.27340744 284.68257538 309.27340744 284.67755127 310.57254028 C284.65724942 326.96092098 286.16725139 342.90908001 288.45996094 359.12060547 C289.05572818 363.40032588 289.60138517 367.68456383 290.1328125 371.97265625 C290.26355667 373.02736366 290.26355667 373.02736366 290.39694214 374.1033783 C290.59868744 375.73549595 290.79945868 377.36773397 291 379 C296.23809014 352.16885729 296.6194012 325.41943654 296.63296986 298.18551159 C296.65827139 260.44160631 296.65827139 260.44160631 303.125 244.75 C303.4235791 244.0082251 303.7221582 243.2664502 304.02978516 242.50219727 C309.43335912 229.68702044 318.60310835 216.788774 331 210 C331.99 210 332.98 210 334 210 C333.9071875 208.2675 333.9071875 208.2675 333.8125 206.5 C333.90487133 186.73253634 341.70821847 167.09782134 351 150 C351.66 150 352.32 150 353 150 C353.11463348 180.90458402 353.20283996 211.80911835 353.25532665 242.71386489 C353.26157846 246.38159061 353.26805024 250.04931592 353.2746582 253.71704102 C353.27596976 254.44706662 353.27728131 255.17709222 353.2786326 255.92923982 C353.30025273 267.67285739 353.33959819 279.41634968 353.38576398 291.15989351 C353.43290537 303.25456775 353.46037386 315.34917744 353.47044247 327.44393975 C353.47662372 334.2185941 353.49183911 340.9929497 353.52865028 347.76751518 C353.90099349 419.0501014 353.90099349 419.0501014 346 434 C345.32516728 436.3309847 344.65961722 438.66466405 344 441 C343.0536035 443.74979267 342.03139059 446.46861145 341 449.1875 C340.60941406 450.23454102 340.60941406 450.23454102 340.2109375 451.30273438 C339.18165697 454.03448648 338.15487436 456.70387216 336.80078125 459.29296875 C334.83573503 463.48187216 337.11921774 468.40262621 338.515625 472.53515625 C343.56141739 489.28002896 340.546058 509.54213005 332.97753906 525.10205078 C322.21020733 544.99046932 304.03269471 560.54072845 282.42773438 567.04980469 C251.65140128 575.7094438 213.28128018 574.81685984 184.68359375 559.1875 C178.38023417 556.39824045 171.25048566 560.14967003 165.125 562.3125 C134.74912566 572.68959843 99.96677036 577.8849854 69.75 564.1875 C62.4464827 560.27814842 54.95037417 553.88951907 52 546 C51.32617838 540.6807729 51.64663599 535.33317902 52 530 C51.31292969 529.90847656 50.62585938 529.81695313 49.91796875 529.72265625 C46.36547122 528.84285432 43.4458161 527.26576972 40.3125 525.4375 C39.69745605 525.08034912 39.08241211 524.72319824 38.44873047 524.35522461 C24.8564303 516.28446445 15.37164419 506.5289721 9 492 C8.63648438 491.18015625 8.27296875 490.3603125 7.8984375 489.515625 C4.3003702 479.44103656 4.41890308 465.68523247 9 456 C9.40992188 455.11183594 9.81984375 454.22367188 10.2421875 453.30859375 C13.53030822 446.46969178 13.53030822 446.46969178 16 444 C15.6599711 438.04949429 13.66728095 432.72726057 11.75 427.125 C9.00256792 418.79760002 6.83948111 410.47464013 5.125 401.875 C4.82094238 400.36703857 4.82094238 400.36703857 4.51074219 398.82861328 C1.75107146 384.37489741 1.86107789 369.99566632 1.88647461 355.34082031 C1.88675703 353.05336508 1.88659768 350.76590977 1.8860321 348.47845459 C1.88574626 342.29753613 1.89160848 336.11663724 1.89860606 329.9357233 C1.90487515 323.46551171 1.90544621 316.99529962 1.90663147 310.52508545 C1.90938222 299.6745974 1.91562013 288.82411734 1.92456055 277.97363281 C1.93375507 266.80306026 1.9408259 255.63248964 1.94506836 244.46191406 C1.94533108 243.77208377 1.94559381 243.08225348 1.94586449 242.37151924 C1.94716963 238.91046233 1.94843332 235.44940541 1.94967639 231.98834848 C1.9600245 203.32556084 1.97769622 174.6627807 2 146 C2.66 146 3.32 146 4 146 C4.6768454 147.56743146 5.35152756 149.1358113 6.01953125 150.70703125 C6.71513222 152.33379527 7.42203687 153.95574672 8.13671875 155.57421875 C15.83345933 173.37141384 21.00339653 192.11824544 21.3125 211.5625 C21.46706588 218.76114825 22.37477088 223.29630495 27.00317383 229.08227539 C29.35421418 232.51757105 30.77248046 235.94986873 32.23828125 239.82421875 C32.5072522 240.5162439 32.77622314 241.20826904 33.05334473 241.92126465 C33.70916039 243.61150368 34.35555999 245.30539112 35 247 C35.09367609 239.47070446 35.16425034 231.94147109 35.20724869 224.41172123 C35.22791103 220.91334665 35.25582356 217.4153776 35.30175781 213.91723633 C35.54701086 194.73249311 35.04646487 177.7402375 27 160 C26.53980469 158.88625 26.53980469 158.88625 26.0703125 157.75 C23.92649075 152.64734988 21.28431323 148.00617307 18.390625 143.29296875 C14.30148157 136.55047663 14.30148157 136.55047663 13.5625 132.75 C13.1626686 130.81953752 13.1626686 130.81953752 11.1875 130 C10.465625 129.67 9.74375 129.34 9 129 C6.46534287 127.2619494 5.21088686 125.93591939 4.52734375 122.90234375 C3.82134073 116.62786625 3.8921086 110.30565283 4 104 C4.99 104 5.98 104 7 104 C7 104.66 7 105.32 7 106 C7.59554688 106.09539062 8.19109375 106.19078125 8.8046875 106.2890625 C11.4972781 107.16104024 12.35100511 108.19093594 14.125 110.375 C14.72054688 111.08527344 15.31609375 111.79554688 15.9296875 112.52734375 C16.95449219 113.75130859 16.95449219 113.75130859 18 115 C19.73926915 116.99037944 21.4864649 118.96906751 23.25 120.9375 C24.08015625 121.87464844 24.9103125 122.81179688 25.765625 123.77734375 C27.87534361 126.20559252 27.87534361 126.20559252 31 127 C31.04125 125.80375 31.0825 124.6075 31.125 123.375 C31.14820313 122.70210938 31.17140625 122.02921875 31.1953125 121.3359375 C30.94563757 118.34982536 29.96687086 115.83429292 29 113 C28.48720881 110.63203233 28.00992007 108.25618478 27.5625 105.875 C23.75240912 86.38510243 17.19905907 68.35728596 9.37670898 50.13378906 C6.3788151 43.11450297 3.89997084 36.83569731 3.5625 29.125 C3.17326424 22.91164393 2.19846277 16.92598628 1.01586914 10.82470703 C0.31932518 7.16408206 -0.16752469 3.72924519 0 0 Z " fill="#2F5782" transform="translate(298,268)"/>
<path d="M0 0 C0.33 0 0.66 0 1 0 C0.6814206 8.72907561 -0.67246229 16.95668841 -2.49389648 25.47802734 C-3.57950463 30.62457809 -4.32168307 35.63961946 -4.8125 40.875 C-5.6441775 47.82328748 -8.02926444 52.85088551 -11.328125 58.91015625 C-12.67341499 61.39642818 -13.755639 63.71919614 -14.6875 66.375 C-15.66712143 69.0806211 -16.64374572 71.26099403 -18 73.75 C-20.09736494 77.84222708 -21.060883 81.94960985 -22.08984375 86.4140625 C-23.18765781 90.73935568 -24.55545814 94.94634039 -25.9375 99.1875 C-31.09765032 115.28856577 -33.96775623 131.2199411 -36 148 C-35.45472656 147.14019531 -34.90945313 146.28039062 -34.34765625 145.39453125 C-29.8210096 138.28760473 -25.17627942 131.2925332 -20.33984375 124.390625 C-18.62418076 121.92688302 -16.96036546 119.43401889 -15.31640625 116.921875 C-14.86773193 116.23794678 -14.41905762 115.55401855 -13.95678711 114.84936523 C-13.0867804 113.51875736 -12.22148947 112.18505087 -11.36157227 110.84790039 C-9.41212305 107.87146305 -8.00064665 106.0004311 -5 104 C-4.77548687 108.80112693 -4.61330081 113.59912712 -4.50561523 118.40429688 C-4.46068373 120.03407062 -4.3995092 121.66348838 -4.32104492 123.29199219 C-3.68602936 136.82238913 -3.68602936 136.82238913 -6.84570312 142.05883789 C-9.12134982 144.52245833 -11.5228977 146.74211258 -14 149 C-16.09112232 151.77339137 -17.86428979 154.69590736 -19.625 157.6875 C-20.08664551 158.46005127 -20.54829102 159.23260254 -21.02392578 160.02856445 C-32.46163916 179.48226522 -39.63463776 200.35381939 -41 223 C-41.66 223 -42.32 223 -43 223 C-43 223.66 -43 224.32 -43 225 C-44.2684375 225.99 -44.2684375 225.99 -45.5625 227 C-51.32615043 231.59996804 -55.49304101 238.11815178 -58 245 C-58.66 245 -59.32 245 -60 245 C-60.58990321 170.45750253 -60.58990321 170.45750253 -55 138 C-54.81308594 136.81921875 -54.62617187 135.6384375 -54.43359375 134.421875 C-52.86059228 124.5627477 -50.81707566 114.92705592 -48.125 105.3125 C-47.58792042 103.37907872 -47.05146421 101.44548416 -46.515625 99.51171875 C-46.25587891 98.57505371 -45.99613281 97.63838867 -45.72851562 96.67333984 C-45.08016847 94.29418389 -44.45986773 91.91113 -43.859375 89.51953125 C-42.38927092 83.67753971 -40.93364204 78.17711962 -38 72.8828125 C-36.8219846 70.66483038 -35.91530512 68.40081856 -35 66.0625 C-33.48179178 62.18459605 -31.8585667 58.37851806 -30.1484375 54.58203125 C-27.70232523 49.0824387 -25.36242107 43.53594003 -23 38 C-22.34 38 -21.68 38 -21 38 C-20.88269531 37.26910156 -20.76539063 36.53820312 -20.64453125 35.78515625 C-18.65467144 27.18654991 -12.23089924 18.95425695 -7.75 11.4375 C-7.21850342 10.54409912 -6.68700684 9.65069824 -6.1394043 8.73022461 C-5.63449463 7.88983643 -5.12958496 7.04944824 -4.609375 6.18359375 C-3.9282666 5.04748657 -3.9282666 5.04748657 -3.23339844 3.88842773 C-2 2 -2 2 0 0 Z " fill="#BABDDD" transform="translate(655,260)"/>
<path d="M0 0 C0.66 0 1.32 0 2 0 C5.53453049 10.60359148 2.8835304 24.37335019 -1.44140625 34.3125 C-10.05893874 51.26764513 -22.36584144 62.15729737 -40 69 C-41.13695312 69.44279297 -41.13695312 69.44279297 -42.296875 69.89453125 C-52.5362777 73.57999002 -62.81138235 74.36286135 -73.625 74.3125 C-74.85613525 74.30831055 -76.08727051 74.30412109 -77.35571289 74.29980469 C-91.607697 74.12388892 -104.51714945 71.61934184 -118 67 C-118 66.34 -118 65.68 -118 65 C-115.77727913 63.43399212 -113.56311296 61.9829533 -111.25 60.5625 C-109.98351194 59.77351913 -108.71786502 58.9831862 -107.453125 58.19140625 C-106.55158691 57.63199341 -106.55158691 57.63199341 -105.63183594 57.0612793 C-103.84582625 55.9371584 -103.84582625 55.9371584 -101.71875 54.1796875 C-101.1515625 53.79039062 -100.584375 53.40109375 -100 53 C-96.46321533 53.72343323 -93.77850947 55.1230503 -90.625 56.875 C-76.26245084 64.05627458 -56.66709952 66.10344032 -41.25 61.375 C-30.33861397 56.92554431 -21.54279826 50.8141974 -15 41 C-15.65484375 41.51949219 -16.3096875 42.03898438 -16.984375 42.57421875 C-23.64178629 47.66130845 -30.0723967 51.28416364 -38 54 C-38.71285156 54.24621094 -39.42570313 54.49242187 -40.16015625 54.74609375 C-55.01387516 58.89597668 -71.06132174 55.91629111 -84.375 48.75 C-85.92508642 47.84764421 -87.47032283 46.93653704 -89 46 C-88 44 -88 44 -86.28857422 43.39331055 C-85.5513916 43.22613525 -84.81420898 43.05895996 -84.0546875 42.88671875 C-82.82153809 42.59692139 -82.82153809 42.59692139 -81.56347656 42.30126953 C-80.23268066 41.99745361 -80.23268066 41.99745361 -78.875 41.6875 C-48.99169724 34.51105189 -21.6876437 22.18054469 0 0 Z " fill="#F8F8F9" transform="translate(619,747)"/>
<path d="M0 0 C0.66 0 1.32 0 2 0 C2.07032029 9.13802307 2.1232188 18.27594932 2.15543652 27.41418648 C2.17091968 31.66001239 2.19182896 35.90564975 2.22631836 40.15136719 C2.37251078 58.65169502 2.45125923 76.74485996 -1 95 C-1.20955322 96.19802246 -1.41910645 97.39604492 -1.63500977 98.63037109 C-2.15944385 101.47818823 -2.74107311 104.29980528 -3.375 107.125 C-3.58922607 108.08672119 -3.80345215 109.04844238 -4.02416992 110.03930664 C-5.65449053 117.07300965 -7.75337553 123.53265497 -11 130 C-11.69835323 131.42296291 -12.39623206 132.8461587 -13.09375 134.26953125 C-15.0308463 138.19621622 -17.00635221 142.10175073 -19 146 C-19.66 146 -20.32 146 -21 146 C-20.91435791 145.35562988 -20.82871582 144.71125977 -20.74047852 144.04736328 C-20.3461764 141.07345738 -19.95432605 138.09923311 -19.5625 135.125 C-19.42779297 134.11179687 -19.29308594 133.09859375 -19.15429688 132.0546875 C-19.02216797 131.04921875 -18.89003906 130.04375 -18.75390625 129.0078125 C-18.63345947 128.09660645 -18.5130127 127.18540039 -18.38891602 126.24658203 C-18.26057373 125.17520996 -18.13223145 124.10383789 -18 123 C-17.91267609 122.35183319 -17.82535217 121.70366638 -17.73538208 121.03585815 C-16.79210135 113.18514159 -16.86375754 105.32436784 -16.86190033 97.43087387 C-16.8575262 92.99030136 -16.82641185 88.54986631 -16.80078125 84.109375 C-16.77053223 78.49442158 -16.7476755 72.87969123 -16.74951172 67.26464844 C-16.75030659 62.69461833 -16.72661669 58.1252499 -16.6876297 53.55539322 C-16.67729259 51.8325919 -16.67555308 50.10971304 -16.68328094 48.38689804 C-16.74480965 33.14860832 -14.54581335 18.23343525 -4.9375 5.75 C-4.43089844 5.08484375 -3.92429687 4.4196875 -3.40234375 3.734375 C-2 2 -2 2 0 0 Z " fill="#F8F8FA" transform="translate(630,496)"/>
<path d="M0 0 C0.33 0 0.66 0 1 0 C1.02500545 4.49828743 1.04300224 8.99653638 1.05493164 13.49487305 C1.05991292 15.02027086 1.06670038 16.54566401 1.07543945 18.07104492 C1.1431675 30.21030066 0.6537972 41.89404735 -1.8125 53.8125 C-1.98845703 54.67270752 -2.16441406 55.53291504 -2.34570312 56.41918945 C-4.55909293 66.98497503 -7.16924346 77.2870959 -12 87 C-15.65623364 86.42811108 -18.25530315 85.42107945 -21.4375 83.5625 C-27.66381984 80.30333712 -34.0806156 79.66800973 -41 79 C-40.3739333 75.20232066 -39.24609618 72.01287313 -37.6875 68.5 C-35.3770498 63.09114259 -33.55516744 57.64690901 -31.89453125 52.0078125 C-31.45173828 50.51894531 -31.45173828 50.51894531 -31 49 C-30.72671875 47.99839844 -30.4534375 46.99679687 -30.171875 45.96484375 C-28.7810041 42.44594036 -26.94785851 40.26214439 -24.4375 37.4375 C-14.5247316 25.93366044 -7.16231871 13.32280995 0 0 Z " fill="#F9F8FA" transform="translate(631,629)"/>
<path d="M0 0 C3.28095621 1.38404362 4.80082082 2.77804664 6.8125 5.6875 C19.99830258 23.16504133 37.45230872 35.48902062 57 45 C56 48 56 48 53.48828125 49.4296875 C52.44027344 49.90664063 51.39226562 50.38359375 50.3125 50.875 C46.68805086 52.59071557 43.54774376 54.11680749 40.625 56.875 C37.3306097 59.54188739 36.16213556 59.43107833 32 59 C29.46371609 57.99641374 27.24538748 56.98855601 24.875 55.6875 C24.22337891 55.33212158 23.57175781 54.97674316 22.90039062 54.6105957 C11.02615279 47.8379359 1.96040173 38.29833449 -3.4375 25.625 C-4.89065971 16.26019299 -4.82088281 8.32893592 0 0 Z " fill="#F9FAFB" transform="translate(323,726)"/>
<path d="M0 0 C1.68665877 1.64643182 3.35008249 3.31675083 5 5 C8.1274627 7.17784416 11.3279756 9.19726325 14.55078125 11.23046875 C15.35902344 11.81441406 16.16726563 12.39835938 17 13 C17 13.66 17 14.32 17 15 C-5.71087283 21.23791974 -31.99986823 26.94052168 -55 19 C-55.845625 18.7215625 -56.69125 18.443125 -57.5625 18.15625 C-62.98953992 16.08540582 -67.00564639 13.06104473 -70 8 C-70 7.01 -70 6.02 -70 5 C-69.37561035 5.06711182 -68.7512207 5.13422363 -68.10791016 5.20336914 C-46.27441306 7.38592735 -26.22562926 6.90227533 -5.14355469 0.55078125 C-3 0 -3 0 0 0 Z " fill="#F7F8F9" transform="translate(437,799)"/>
<path d="M0 0 C4.87198811 4.29881304 7.91098443 9.31947857 11 15 C11.39155273 15.71969971 11.78310547 16.43939941 12.18652344 17.1809082 C15.35990894 23.23338293 17.51855322 29.21103222 19.25 35.8125 C19.50740967 36.78171387 19.76481934 37.75092773 20.0300293 38.74951172 C21.85654924 45.88254646 22.81782426 52.63489495 23 60 C23.09409312 61.34549758 23.19484928 62.69053895 23.30078125 64.03515625 C24.13188374 75.38987946 23.98240994 86.69180227 23.6875 98.0625 C23.6619101 99.21170425 23.6619101 99.21170425 23.63580322 100.38412476 C23.58439466 102.58076611 23.51916992 104.77653568 23.44921875 106.97265625 C23.41143311 108.25406494 23.37364746 109.53547363 23.3347168 110.85571289 C23 114 23 114 21 117 C20.34 117 19.68 117 19 117 C16.84926485 112.9080569 15.23433282 108.89382272 13.8125 104.5 C11.50079286 97.82644788 8.39329838 92.14410416 4.671875 86.15625 C1.92889237 80.97790895 1.96567451 76.25135449 1.875 70.5 C1.52674261 61.95714078 -0.42933523 53.73048103 -2.375 45.4375 C-2.52793518 44.77766113 -2.68087036 44.11782227 -2.83843994 43.43798828 C-5.09504889 33.43078833 -5.09504889 33.43078833 -9 24 C-9.66 23.67 -10.32 23.34 -11 23 C-10.92645861 23.64382566 -10.85291721 24.28765133 -10.77714729 24.95098686 C-10.01174734 32.3231061 -9.94595753 39.54582607 -10.11669922 46.94970703 C-10.16505977 49.54214306 -10.21332377 52.1345809 -10.26150513 54.72702026 C-10.28912045 56.10627528 -10.31694706 57.48552609 -10.34497452 58.8647728 C-10.49419151 66.27961943 -10.6152305 73.69495419 -10.73339844 81.11035156 C-10.74578088 81.8826664 -10.75816332 82.65498125 -10.77092099 83.45069957 C-11.20523227 110.95952146 -11.15036585 138.47188151 -11.12856746 165.9833796 C-11.12415768 172.22282481 -11.1273865 178.46225035 -11.1321975 184.70169437 C-11.13674516 190.85433185 -11.13737499 197.00696081 -11.13475883 203.15959942 C-11.13322189 206.77517554 -11.13293223 210.39073814 -11.13629532 214.00631332 C-11.13974271 217.97931798 -11.13495751 221.95229025 -11.12939453 225.92529297 C-11.13141876 227.07821335 -11.13344299 228.23113373 -11.13552856 229.41899109 C-11.11898874 235.81644695 -10.81807036 242.10238767 -10.17147636 248.46844673 C-9.96999986 251.44290036 -10.27735937 254.10943749 -11 257 C-11.33 257 -11.66 257 -12 257 C-13.98969784 243.55593057 -14.27450796 230.3468231 -14.22705078 216.77319336 C-14.22648541 214.48500066 -14.22680567 212.1968076 -14.22793579 209.90861511 C-14.2285054 203.74862878 -14.21681502 197.58872167 -14.20278788 191.42875361 C-14.19021471 184.97192085 -14.18910485 178.51508591 -14.18673706 172.0582428 C-14.18124374 161.23762492 -14.16878427 150.41703924 -14.15087891 139.59643555 C-14.13247036 128.46004376 -14.11833833 117.32365983 -14.10986328 106.18725586 C-14.10933783 105.49873918 -14.10881239 104.81022251 -14.10827102 104.10084169 C-14.1056606 100.646138 -14.10313327 97.19143424 -14.10064721 93.73673046 C-14.07997424 65.15780091 -14.04465073 36.57890159 -14 8 C-13.34 8 -12.68 8 -12 8 C-11.3231546 9.56743146 -10.64847244 11.1358113 -9.98046875 12.70703125 C-9.28486778 14.33379527 -8.57796313 15.95574672 -7.86328125 17.57421875 C-0.16654067 35.37141384 5.00339653 54.11824544 5.3125 73.5625 C5.46706588 80.76114825 6.37477088 85.29630495 11.00317383 91.08227539 C13.35421418 94.51757105 14.77248046 97.94986873 16.23828125 101.82421875 C16.5072522 102.5162439 16.77622314 103.20826904 17.05334473 103.92126465 C17.70916039 105.61150368 18.35555999 107.30539112 19 109 C19.09367609 101.47070446 19.16425034 93.94147109 19.20724869 86.41172123 C19.22791103 82.91334665 19.25582356 79.4153776 19.30175781 75.91723633 C19.54701086 56.73249311 19.04646487 39.7402375 11 22 C10.69320313 21.2575 10.38640625 20.515 10.0703125 19.75 C7.9038381 14.59343284 5.23961664 9.90116072 2.26953125 5.1640625 C1 3 1 3 0 0 Z " fill="#6EBEBD" transform="translate(314,406)"/>
<path d="M0 0 C0.24008789 0.50635986 0.48017578 1.01271973 0.72753906 1.53442383 C8.77099215 18.36854636 17.65780283 34.87907441 30 49 C27 50 27 50 25.15332031 49.37011719 C24.46850586 49.01594727 23.78369141 48.66177734 23.078125 48.296875 C22.30750732 47.89952148 21.53688965 47.50216797 20.74291992 47.09277344 C19.92025635 46.6496582 19.09759277 46.20654297 18.25 45.75 C17.39962158 45.29399414 16.54924316 44.83798828 15.6730957 44.36816406 C-0.75455022 35.35196053 -16.76662518 22.95202545 -27 7 C-27 6.01 -27 5.02 -27 4 C-17.6647778 0.86493287 -9.87722251 -0.59066447 0 0 Z " fill="#F4F6F8" transform="translate(367,708)"/>
<path d="M0 0 C0 3.42156259 -0.56738232 4.20515582 -2.45703125 6.95703125 C-3.25210083 8.12105469 -3.25210083 8.12105469 -4.06323242 9.30859375 C-4.64049072 10.13488281 -5.21774902 10.96117187 -5.8125 11.8125 C-6.40200439 12.66328125 -6.99150879 13.5140625 -7.59887695 14.390625 C-12.40344834 21.26629946 -17.37151828 27.9637665 -22.7265625 34.41992188 C-23.98615426 35.98282024 -25.16592051 37.60897031 -26.34375 39.234375 C-30.42160469 44.4812147 -33.53765137 47.42155018 -40.10864258 48.45800781 C-43.42174198 48.81307718 -46.66512316 48.95465126 -50 49 C-51.08023437 49.05800781 -52.16046875 49.11601563 -53.2734375 49.17578125 C-57.53660224 48.90093539 -58.97870221 46.87742646 -62 44 C-60.60852289 39.82556867 -57.62728098 38.23335407 -54.1875 35.75 C-52.72614102 34.67765748 -51.26522433 33.60471203 -49.8046875 32.53125 C-49.02577148 31.96148438 -48.24685547 31.39171875 -47.44433594 30.8046875 C-44.92603501 28.94539061 -42.43331592 27.05586779 -39.9453125 25.15625 C-27.18629811 15.42809397 -14.53943246 6.91605436 0 0 Z " fill="#F8F7F9" transform="translate(558,727)"/>
<path d="M0 0 C5.49970196 0.35867621 9.4173537 1.98545582 14.26953125 4.5546875 C17.10357572 6.05482549 19.9826177 7.42869356 22.875 8.8125 C33.75640463 14.26711715 43.36072357 21.63988983 53 29 C53.7734375 29.54011719 54.546875 30.08023438 55.34375 30.63671875 C55.8903125 31.08660156 56.436875 31.53648437 57 32 C57 32.66 57 33.32 57 34 C56.42032471 34.20157715 55.84064941 34.4031543 55.2434082 34.61083984 C52.5993569 35.53103841 49.9559246 36.45300277 47.3125 37.375 C46.40048828 37.69210937 45.48847656 38.00921875 44.54882812 38.3359375 C43.66259766 38.6453125 42.77636719 38.9546875 41.86328125 39.2734375 C41.05157471 39.55622559 40.23986816 39.83901367 39.40356445 40.13037109 C37.73057167 40.73567331 36.07821457 41.39987212 34.44604492 42.10791016 C32 43 32 43 28 43 C26.45117188 41.55737305 26.45117188 41.55737305 24.96875 39.51171875 C24.4109082 38.75133301 23.85306641 37.99094727 23.27832031 37.20751953 C22.69147461 36.37591309 22.10462891 35.54430664 21.5 34.6875 C20.58492676 33.41688721 20.58492676 33.41688721 19.65136719 32.12060547 C2.9887941 8.72310835 2.9887941 8.72310835 0 0 Z " fill="#FAFAFB" transform="translate(390,713)"/>
<path d="M0 0 C9.83445236 -0.76798326 17.68559684 1.7904368 26 7 C18.99882873 23.63261682 -5.39660274 35.01320406 -20.90625 41.43359375 C-23 42 -23 42 -26 41 C-25.3709375 40.14019531 -24.741875 39.28039062 -24.09375 38.39453125 C-15.16905766 26.10686054 -7.45164908 13.21874984 0 0 Z " fill="#F9F9FA" transform="translate(583,722)"/>
<path d="M0 0 C0.66 0 1.32 0 2 0 C1.37664397 2.01391949 0.69971973 4.01132287 0 6 C-0.4640625 7.5778125 -0.4640625 7.5778125 -0.9375 9.1875 C-3.73875004 13.00738641 -6.16898732 13.02779736 -10.66015625 14.0546875 C-32.36357851 20.19764444 -51.63654531 37.05499716 -68.859375 50.90234375 C-70.06895874 51.86563599 -70.06895874 51.86563599 -71.30297852 52.84838867 C-72.85603185 54.08691968 -74.40126498 55.3353415 -75.93725586 56.5949707 C-83.01374993 62.23078016 -83.01374993 62.23078016 -88 62 C-90.5546875 60.41796875 -90.5546875 60.41796875 -92.875 58.1875 C-93.65617187 57.45917969 -94.43734375 56.73085938 -95.2421875 55.98046875 C-97 54 -97 54 -97 52 C-94.37527143 50.91600537 -91.75022373 49.8327943 -89.125 48.75 C-88.39796875 48.44964844 -87.6709375 48.14929688 -86.921875 47.83984375 C-86.18710937 47.53691406 -85.45234375 47.23398437 -84.6953125 46.921875 C-83.54349487 46.44669434 -83.54349487 46.44669434 -82.3684082 45.96191406 C-80.80191695 45.32569351 -79.23011045 44.7023916 -77.65307617 44.09277344 C-52.55015224 34.35717378 -19.19429401 19.19429401 0 0 Z " fill="#F2F2F5" transform="translate(571,698)"/>
<path d="M0 0 C2.703125 1.93359375 2.703125 1.93359375 5.25 4.4375 C8.35389976 7.59969859 8.35389976 7.59969859 12 10 C12 10.66 12 11.32 12 12 C-0.20920101 19.93479989 -8.9072347 18.4182159 -22.5390625 15.60009766 C-26.3010498 14.76912123 -28.73762938 14.17491375 -32 12 C-32 11.34 -32 10.68 -32 10 C-27.00818681 7.979023 -22.00755063 5.98163747 -17 4 C-15.93265625 3.57460938 -14.8653125 3.14921875 -13.765625 2.7109375 C-12.83234375 2.35257813 -11.8990625 1.99421875 -10.9375 1.625 C-9.71353516 1.14933594 -9.71353516 1.14933594 -8.46484375 0.6640625 C-5.40929699 -0.15914344 -3.15397744 -0.39577725 0 0 Z " fill="#F5F6F7" transform="translate(462,757)"/>
<path d="M0 0 C0.66 0 1.32 0 2 0 C2.268125 0.49886719 2.53625 0.99773437 2.8125 1.51171875 C5.28272209 6.03775068 7.88295279 10.44553592 10.625 14.8125 C18.24034132 27.14619781 25.1879438 39.82954024 31.25 53 C31.64501709 53.84248291 32.04003418 54.68496582 32.44702148 55.55297852 C32.79966064 56.33987061 33.1522998 57.1267627 33.515625 57.9375 C33.82790039 58.62714844 34.14017578 59.31679688 34.46191406 60.02734375 C35.10186712 62.37345113 34.77246119 63.72461186 34 66 C33.23429687 64.23462891 33.23429687 64.23462891 32.453125 62.43359375 C28.19718666 52.73801866 23.69462177 43.2097416 18.8125 33.8125 C18.08305176 32.39892212 18.08305176 32.39892212 17.33886719 30.95678711 C14.58913533 25.72179219 11.63960064 20.79620943 8.20581055 15.97924805 C6.98219379 13.97077243 6.43620546 12.29803449 6 10 C5.34 10 4.68 10 4 10 C4.19335938 10.93457031 4.38671875 11.86914062 4.5859375 12.83203125 C6.27891763 21.28711435 7.5215071 29.65975224 8.17724609 38.26293945 C9.0517232 48.27624212 13.19808999 57.19732341 16.9375 66.4375 C17.36740234 67.50548828 17.79730469 68.57347656 18.24023438 69.67382812 C18.66498047 70.72892578 19.08972656 71.78402344 19.52734375 72.87109375 C19.9435498 73.90540527 20.35975586 74.9397168 20.78857422 76.00537109 C21.56420024 77.9227086 22.34646674 79.83738141 23.13720703 81.74853516 C25.14232235 86.63269518 26.77096286 91.3643805 28 96.5 C28.16097168 97.16652588 28.32194336 97.83305176 28.48779297 98.51977539 C30.26173753 105.93754259 31.90652552 113.38654843 33.52490234 120.83959961 C33.8616091 122.37069833 34.20651677 123.90000408 34.55712891 125.42797852 C34.73937012 126.22518311 34.92161133 127.0223877 35.109375 127.84375 C35.27663086 128.56626953 35.44388672 129.28878906 35.61621094 130.03320312 C36.07499462 132.38432355 36.15409386 134.61154521 36 137 C35.34 137.33 34.68 137.66 34 138 C28.81944969 133.898731 24.87339597 129.54497103 20.89453125 124.26953125 C19.08531954 122.10220753 17.32436866 120.58221991 15 119 C15.495 118.01 15.495 118.01 16 117 C22.46763296 122.50464536 28.0588897 128.07917332 33 135 C33.26483752 130.63018085 32.23109908 127.17709759 31 123 C30.51461282 120.70201924 30.08563891 118.39708204 29.65698242 116.08789062 C27.80071094 106.10282967 25.28898542 96.59793634 22 87 C21.72220703 86.17371094 21.44441406 85.34742188 21.15820312 84.49609375 C20.26019324 81.82760924 19.35123981 79.16313667 18.4375 76.5 C18.01633911 75.2625 18.01633911 75.2625 17.58666992 74 C15.97210917 69.37812641 14.13360697 65.01813486 11.86401367 60.6784668 C10.74726764 58.50903221 9.8629984 56.28078148 9 54 C8.67185303 53.25137695 8.34370605 52.50275391 8.00561523 51.73144531 C6.92009688 48.78296769 6.44877098 46.09723032 6.03515625 42.984375 C5.79684082 41.24220703 5.79684082 41.24220703 5.55371094 39.46484375 C5.39161133 38.23894531 5.22951172 37.01304687 5.0625 35.75 C3.75152724 26.16088851 2.31769014 16.63376924 0.515625 7.125 C0 4 0 4 0 0 Z " fill="#9BE4DE" transform="translate(294,258)"/>
<path d="M0 0 C2 1 2 1 2.77441406 2.70800781 C3.01901367 3.44889648 3.26361328 4.18978516 3.515625 4.953125 C3.93352295 6.2064563 3.93352295 6.2064563 4.35986328 7.48510742 C4.6536084 8.39752197 4.94735352 9.30993652 5.25 10.25 C5.71188721 11.66986206 5.71188721 11.66986206 6.18310547 13.1184082 C7.13553346 16.07485242 8.07091894 19.03614238 9 22 C9.27424805 22.86866699 9.54849609 23.73733398 9.83105469 24.63232422 C15.88160153 44.02789705 19.88819286 63.92618412 21.640625 84.171875 C21.85007374 86.40295942 22.10583515 88.6323327 22.47575378 90.84248352 C27.92171102 123.64329199 26.37060139 157.5415793 26.21608078 190.67390144 C26.18186665 198.14489393 26.16588332 205.61589703 26.15097082 213.08694899 C26.12003747 228.39139024 26.06765377 243.69567413 26 259 C25.67 259 25.34 259 25 259 C24.99576806 258.44616229 24.99153612 257.89232458 24.98717594 257.32170391 C24.88391348 243.85144855 24.77522029 230.38124646 24.66066074 216.91108227 C24.60542564 210.39703773 24.55200462 203.88298871 24.50268555 197.36889648 C24.45505077 191.08598664 24.40270817 184.80313226 24.34705925 178.52028847 C24.3266317 176.11965625 24.30791929 173.71900882 24.29092598 171.31834984 C24.26689096 167.96372335 24.23683496 164.60920206 24.20532227 161.25463867 C24.19668907 159.75599777 24.19668907 159.75599777 24.18788147 158.2270813 C24.17319824 156.85780235 24.17319824 156.85780235 24.15821838 155.46086121 C24.15176583 154.66719745 24.14531328 153.87353369 24.1386652 153.05581951 C24.07312867 150.79994073 24.07312867 150.79994073 23 148 C22.86449039 146.47970791 22.77601902 144.95493212 22.71875 143.4296875 C22.68136719 142.5325 22.64398438 141.6353125 22.60546875 140.7109375 C22.55326172 139.30714844 22.55326172 139.30714844 22.5 137.875 C22.27104886 131.87139243 21.92114159 125.94877967 21.20507812 119.98291016 C20.93740489 117.39476494 20.938473 114.8495158 21 112.25 C21.06093027 109.64523091 21.06476216 107.32212134 20.55078125 104.765625 C19.91660642 101.58125777 19.66367479 98.44717734 19.40527344 95.21337891 C17.54596949 72.04711868 14.35254049 49.38219146 8 27 C7.79842285 26.2884375 7.5968457 25.576875 7.38916016 24.84375 C5.00091244 14.230125 5.00091244 14.230125 0 5 C-0.04063832 3.33382885 -0.042721 1.66611905 0 0 Z " fill="#ACE0DF" transform="translate(329,324)"/>
<path d="M0 0 C4.87198811 4.29881304 7.91098443 9.31947857 11 15 C11.39155273 15.71969971 11.78310547 16.43939941 12.18652344 17.1809082 C15.35990894 23.23338293 17.51855322 29.21103222 19.25 35.8125 C19.50740967 36.78171387 19.76481934 37.75092773 20.0300293 38.74951172 C21.85654924 45.88254646 22.81782426 52.63489495 23 60 C23.09409312 61.34549758 23.19484928 62.69053895 23.30078125 64.03515625 C24.13188374 75.38987946 23.98240994 86.69180227 23.6875 98.0625 C23.6619101 99.21170425 23.6619101 99.21170425 23.63580322 100.38412476 C23.58439466 102.58076611 23.51916992 104.77653568 23.44921875 106.97265625 C23.41143311 108.25406494 23.37364746 109.53547363 23.3347168 110.85571289 C23 114 23 114 21 117 C20.34 117 19.68 117 19 117 C16.82909069 112.87028172 15.19652836 108.80626644 13.75 104.375 C12.08232665 99.48892047 10.20254346 95.6545549 7.25 91.4375 C2.44499748 83.69957386 3.06758482 75.21575685 3.03271484 66.38867188 C2.97128854 61.90363461 2.49037295 57.45509039 2 53 C5.05870796 57.58806194 5.0375317 62.28271215 5.0703125 67.671875 C5.11629502 80.23170377 5.11629502 80.23170377 11.00244141 91.07910156 C13.35282935 94.51591914 14.77215823 97.94901704 16.23828125 101.82421875 C16.5072522 102.5162439 16.77622314 103.20826904 17.05334473 103.92126465 C17.70916039 105.61150368 18.35555999 107.30539112 19 109 C19.09367609 101.47070446 19.16425034 93.94147109 19.20724869 86.41172123 C19.22791103 82.91334665 19.25582356 79.4153776 19.30175781 75.91723633 C19.54701086 56.73249311 19.04646487 39.7402375 11 22 C10.69320313 21.2575 10.38640625 20.515 10.0703125 19.75 C7.9038381 14.59343284 5.23961664 9.90116072 2.26953125 5.1640625 C1 3 1 3 0 0 Z " fill="#3BB6B0" transform="translate(314,406)"/>
<path d="M0 0 C4.61490242 1.86618564 9.34608229 3.24420615 14.125 4.625 C14.125 5.285 14.125 5.945 14.125 6.625 C0.14981141 10.33405479 -15.62865343 11.60399996 -29.875 8.625 C-29.875 7.965 -29.875 7.305 -29.875 6.625 C-27.05894174 5.07048897 -24.22010414 3.56309176 -21.375 2.0625 C-20.58351563 1.62486328 -19.79203125 1.18722656 -18.9765625 0.73632812 C-12.17411574 -2.80428966 -7.20841943 -3.08932261 0 0 Z " fill="#ECEDF0" transform="translate(407.875,782.375)"/>
<path d="M0 0 C1.84375 0.1796875 1.84375 0.1796875 4 1 C10.69086542 11.93100688 16.98180973 33.34565538 14.54296875 46.45703125 C14.36378906 46.96621094 14.18460937 47.47539063 14 48 C13.70694479 46.56278243 13.41567065 45.12520173 13.125 43.6875 C12.93679688 42.76066406 12.74859375 41.83382812 12.5546875 40.87890625 C12.21610704 39.12162599 11.90234822 37.35903032 11.6328125 35.58984375 C9.85738424 24.15825972 6.2913441 12.72836026 2 2 C1.67 41.6 1.34 81.2 1 122 C0.67 122 0.34 122 0 122 C-0.57133819 90.23033577 -1.10030056 58.46304831 -1.125 26.6875 C-1.12749756 25.55212799 -1.12999512 24.41675598 -1.13256836 23.24697876 C-1.13837834 20.06435977 -1.13703062 16.88183842 -1.1328125 13.69921875 C-1.13479645 12.76681366 -1.1367804 11.83440857 -1.13882446 10.87374878 C-1.13571259 10.02039948 -1.13260071 9.16705017 -1.12939453 8.2878418 C-1.12859894 7.55123825 -1.12780334 6.8146347 -1.12698364 6.05570984 C-0.99564591 3.92951257 -0.58093391 2.04545031 0 0 Z " fill="#2A979C" transform="translate(318,516)"/>
<path d="M0 0 C2.06556043 3.09834064 2.24912227 3.73179905 2.24050903 7.233078 C2.24325836 8.09544571 2.24600769 8.95781342 2.24884033 9.84631348 C2.24164978 10.78930298 2.23445923 11.73229248 2.22705078 12.70385742 C2.22734283 13.6991597 2.22763489 14.69446198 2.22793579 15.71992493 C2.22654061 19.01519438 2.21097038 22.31023872 2.1953125 25.60546875 C2.19158304 27.88804501 2.18873575 30.17062286 2.18673706 32.45320129 C2.17909531 38.46528532 2.1594421 44.47727295 2.1373291 50.48931885 C2.11688238 56.62242326 2.10773785 62.75554322 2.09765625 68.88867188 C2.07619677 80.92582364 2.04205424 92.96290381 2 105 C-0.79133171 102.20866829 -0.2815195 100.46087766 -0.3347168 96.54785156 C-0.34636871 95.88373764 -0.35802063 95.21962372 -0.37002563 94.53538513 C-0.40621896 92.32049041 -0.42799255 90.10571018 -0.44921875 87.890625 C-0.47051774 86.3286652 -0.49248707 84.76671441 -0.51509094 83.20477295 C-0.56065573 79.90592753 -0.59934791 76.60709286 -0.63305664 73.30810547 C-0.67561132 69.1756282 -0.73256895 65.04352 -0.79447746 60.91129303 C-1.09329222 40.57370265 -0.915839 20.32148669 0 0 Z " fill="#3EA8A8" transform="translate(352,472)"/>
<path d="M0 0 C-0.62335603 2.01391949 -1.30028027 4.01132287 -2 6 C-2.309375 7.051875 -2.61875 8.10375 -2.9375 9.1875 C-5.73875004 13.00738641 -8.16898732 13.02779736 -12.66015625 14.0546875 C-25.90907334 17.80467339 -37.70991522 26.40102027 -49 34 C-50.1636788 34.77661691 -51.32770586 35.55271241 -52.4921875 36.328125 C-53.73355469 37.15570312 -53.73355469 37.15570312 -55 38 C-55.33 36.35 -55.66 34.7 -56 33 C-55.4738208 32.73485596 -54.9476416 32.46971191 -54.40551758 32.1965332 C-36.84389953 23.29720554 -19.52228102 13.81532265 -4.08203125 1.51171875 C-2 0 -2 0 0 0 Z " fill="#ECEBF0" transform="translate(573,698)"/>
<path d="M0 0 C0.33 0 0.66 0 1 0 C2.36486887 15.06933713 2.11392796 30.18080031 2.06846237 45.29526806 C2.05835918 49.11059736 2.05494634 52.92593217 2.05102539 56.74127197 C2.04000727 66.41086134 2.02045772 76.08042669 2 85.75 C1.9778958 96.20869122 1.95734768 106.66737266 1.94658184 117.12608266 C1.94164008 121.64542726 1.9318437 126.16472581 1.91815186 130.68405199 C1.91062932 133.50456754 1.90736434 136.32507703 1.9051857 139.14560127 C1.90245855 141.05159926 1.89468429 142.957588 1.88668823 144.86357117 C1.88628845 151.45870184 2.15383967 157.93399938 2.82740784 164.49634171 C3.03174608 167.46051532 2.72009663 170.11961348 2 173 C1.67 173 1.34 173 1 173 C0.033803 168.95106267 -0.1233594 165.17824175 -0.12025452 161.02079773 C-0.12110894 160.33048881 -0.12196337 159.64017989 -0.12284368 158.92895252 C-0.12448688 156.62277437 -0.11899616 154.31666945 -0.11352539 152.01049805 C-0.11324324 150.35460919 -0.11340179 148.69872021 -0.1139679 147.04283142 C-0.11425479 142.55152424 -0.10837543 138.06024376 -0.10139394 133.56894279 C-0.0951425 128.87374745 -0.09455518 124.17855151 -0.09336853 119.48335266 C-0.0902605 110.59410548 -0.08205421 101.70487059 -0.07201904 92.81562883 C-0.06084152 82.69478813 -0.05534332 72.57394685 -0.05032361 62.45310152 C-0.03987118 41.63539415 -0.02228194 20.81769785 0 0 Z " fill="#199497" transform="translate(301,490)"/>
<path d="M0 0 C3.05870796 4.58806194 3.0375317 9.28271215 3.0703125 14.671875 C3.14341839 25.82434217 4.2314495 31.79033292 11 41 C12.98 45.95 14.96 50.9 17 56 C17.33 37.52 17.66 19.04 18 0 C18.33 0 18.66 0 19 0 C19 20.46 19 40.92 19 62 C18.01 61.34 17.02 60.68 16 60 C16 59.34 16 58.68 16 58 C15.34 58 14.68 58 14 58 C13.72027344 57.12859375 13.44054687 56.2571875 13.15234375 55.359375 C11.04702445 49.10434274 9.073065 43.8843823 5.25 38.4375 C0.44499748 30.69957386 1.06758482 22.21575685 1.03271484 13.38867188 C0.97128854 8.90363461 0.49037295 4.45509039 0 0 Z " fill="#82C8C7" transform="translate(316,459)"/>
<path d="M0 0 C9.9 0 19.8 0 30 0 C27.26007624 2.73992376 25.01748218 4.3524168 21.6875 6.25 C20.76324219 6.79140625 19.83898437 7.3328125 18.88671875 7.890625 C15.35032901 9.24967058 13.61782993 9.03840728 10 8 C7.2265625 6.66015625 7.2265625 6.66015625 4.625 5.0625 C3.75101562 4.53785156 2.87703125 4.01320313 1.9765625 3.47265625 C1.32429688 2.98667969 0.67203125 2.50070312 0 2 C0 1.34 0 0.68 0 0 Z " fill="#E4E4E9" transform="translate(463,795)"/>
<path d="M0 0 C0.66 0 1.32 0 2 0 C2.268125 0.49886719 2.53625 0.99773437 2.8125 1.51171875 C5.28272209 6.03775068 7.88295279 10.44553592 10.625 14.8125 C18.24034132 27.14619781 25.1879438 39.82954024 31.25 53 C31.64501709 53.84248291 32.04003418 54.68496582 32.44702148 55.55297852 C32.79966064 56.33987061 33.1522998 57.1267627 33.515625 57.9375 C33.82790039 58.62714844 34.14017578 59.31679688 34.46191406 60.02734375 C35.10186712 62.37345113 34.77246119 63.72461186 34 66 C33.23429687 64.23462891 33.23429687 64.23462891 32.453125 62.43359375 C28.19718666 52.73801866 23.69462177 43.2097416 18.8125 33.8125 C18.08305176 32.39892212 18.08305176 32.39892212 17.33886719 30.95678711 C14.58913533 25.72179219 11.63960064 20.79620943 8.20581055 15.97924805 C6.98219379 13.97077243 6.43620546 12.29803449 6 10 C5.34 10 4.68 10 4 10 C4 13.63 4 17.26 4 21 C3.67 21 3.34 21 3 21 C2.49576443 18.25071558 1.99646574 15.50068857 1.5 12.75 C1.35691406 11.97269531 1.21382813 11.19539063 1.06640625 10.39453125 C0.93105469 9.64042969 0.79570312 8.88632812 0.65625 8.109375 C0.46772461 7.07248535 0.46772461 7.07248535 0.27539062 6.01464844 C0 4 0 4 0 0 Z " fill="#A8E5E1" transform="translate(294,258)"/>
<path d="M0 0 C3.09274964 3.54377563 4.49824252 7.55559314 6 11.9375 C6.26200195 12.69530762 6.52400391 13.45311523 6.79394531 14.23388672 C12.79688374 31.96984116 14.35996113 49.42200622 14 68 C13.67 68 13.34 68 13 68 C12.19813963 63.77432311 11.94269039 59.79350493 11.875 55.5 C11.52674261 46.95714078 9.57066477 38.73048103 7.625 30.4375 C7.47206482 29.77766113 7.31912964 29.11782227 7.16156006 28.43798828 C5.57950649 21.66286861 3.86818591 15.33213743 1 9 C0.48828125 6.34765625 0.48828125 6.34765625 0.3125 4.0625 C0.21388672 2.90427734 0.21388672 2.90427734 0.11328125 1.72265625 C0.07589844 1.15417969 0.03851563 0.58570313 0 0 Z " fill="#40BBB3" transform="translate(304,421)"/>
<path d="M0 0 C1.33864038 2.67728075 0.46678631 4.04491606 -0.390625 6.78515625 C-1.38113283 10.38527126 -1.92832307 14.06106723 -2.53515625 17.7421875 C-3 20 -3 20 -4 21 C-5.39558172 29.2494386 -5.31016705 37.78560278 -5.5625 46.125 C-5.60581131 47.47657242 -5.64942902 48.82813506 -5.69335938 50.1796875 C-5.79857434 53.45304194 -5.90071479 56.72646125 -6 60 C-6.33 60 -6.66 60 -7 60 C-7 49.77 -7 39.54 -7 29 C-7.66 30.32 -8.32 31.64 -9 33 C-9.66 33 -10.32 33 -11 33 C-10.38428536 21.3014219 -6.27798934 9.857779 0 0 Z " fill="#726B8E" transform="translate(588,527)"/>
<path d="M0 0 C0.33 0 0.66 0 1 0 C4.59556597 20.23919212 5.27529062 40.47555459 5 61 C2.91772487 57.8765873 2.73220827 57.00750359 2.62109375 53.4296875 C2.58693359 52.5325 2.55277344 51.6353125 2.51757812 50.7109375 C2.49115234 49.77507812 2.46472656 48.83921875 2.4375 47.875 C2.23810732 41.86776514 1.92828076 35.95126922 1.20727539 29.98291016 C0.93672356 27.3946628 0.93846463 24.84986953 1 22.25 C1.06296459 19.55826378 1.0423366 17.20768267 0.50390625 14.56640625 C-0.0872667 11.55554865 -0.09618977 8.75326945 -0.0625 5.6875 C-0.05347656 4.61886719 -0.04445313 3.55023438 -0.03515625 2.44921875 C-0.02355469 1.64097656 -0.01195312 0.83273437 0 0 Z " fill="#68CCC7" transform="translate(349,414)"/>
<path d="M0 0 C4 1 4 1 5.34375 3.1953125 C18.25478139 35.90907447 18.25478139 35.90907447 14 48 C13.70694479 46.56278243 13.41567065 45.12520173 13.125 43.6875 C12.93679688 42.76066406 12.74859375 41.83382812 12.5546875 40.87890625 C12.21610704 39.12162599 11.90234822 37.35903032 11.6328125 35.58984375 C9.87534868 24.27392872 6.51067744 12.53937132 2 2 C1.67 4.64 1.34 7.28 1 10 C0.67 10 0.34 10 0 10 C0 6.7 0 3.4 0 0 Z " fill="#46A5A7" transform="translate(318,516)"/>
<path d="M0 0 C4.88876844 4.31361921 7.84929753 9.33206963 11 15 C11.44601562 15.7734375 11.89203125 16.546875 12.3515625 17.34375 C17.60190289 27.00695317 20.77380367 37.97329775 20 49 C19.67 49 19.34 49 19 49 C18.75765625 47.88882813 18.5153125 46.77765625 18.265625 45.6328125 C16.43740618 37.44268705 14.47923054 29.67074451 11 22 C10.69320313 21.2575 10.38640625 20.515 10.0703125 19.75 C7.9038381 14.59343284 5.23961664 9.90116072 2.26953125 5.1640625 C1 3 1 3 0 0 Z " fill="#80D7D1" transform="translate(314,406)"/>
<path d="M0 0 C0.66 0 1.32 0 2 0 C-2.65579188 9.84796532 -11.1921304 15.42447762 -20.875 19.9375 C-23.82904616 20.9418757 -25.91318043 21.28061996 -29 21 C-25.12136636 18.41424424 -20.98911553 17.08959685 -16.6171875 15.51171875 C-15.75351562 15.01285156 -14.88984375 14.51398437 -14 14 C-13.62297707 12.34267004 -13.28991303 10.67476545 -13 9 C-10.8203125 7.3046875 -10.8203125 7.3046875 -8.125 5.875 C-4.92693584 4.15009659 -2.54150191 2.57193906 0 0 Z " fill="#42366A" transform="translate(602,788)"/>
<path d="M0 0 C0.99 0.33 1.98 0.66 3 1 C3 2.32 3 3.64 3 5 C2.34 5 1.68 5 1 5 C1.07359238 5.63948074 1.14718475 6.27896149 1.2230072 6.93782043 C2.00481999 14.43670847 2.0532106 21.79270603 1.87890625 29.32421875 C1.85529526 30.55163284 1.83168427 31.77904694 1.80735779 33.0436554 C1.73140375 36.9250751 1.64708959 40.80625988 1.5625 44.6875 C1.50921083 47.33527535 1.45647103 49.98306182 1.40429688 52.63085938 C1.27588217 59.08738171 1.14062187 65.54373261 1 72 C0.67 72 0.34 72 0 72 C0 48.24 0 24.48 0 0 Z " fill="#0DB6AA" transform="translate(302,424)"/>
<path d="M0 0 C3.88335083 1.41097199 5.76080994 2.46443675 8 6 C6.68 5.67 5.36 5.34 4 5 C4 4.34 4 3.68 4 3 C3.01 3 2.02 3 1 3 C1.22933671 6.20095496 1.47090918 9.39960853 1.73828125 12.59765625 C1.88768311 14.53988043 2.00857992 16.48593539 2.04296875 18.43359375 C2.16295244 21.36462381 2.49569748 23.45410552 4.515625 25.640625 C5.74467385 26.66311102 6.99758535 27.65764161 8.2734375 28.62109375 C10.54797509 30.43763622 11.82323648 32.35228207 13 35 C12.67 35.66 12.34 36.32 12 37 C6.38720025 32.72358114 0.81476591 28.25932177 -0.56835938 21.02880859 C-1.06440884 14.004621 -0.66773773 7.00182937 0 0 Z " fill="#85DCD7" transform="translate(301,369)"/>
<path d="M0 0 C0.66 0.66 1.32 1.32 2 2 C1.12859375 2.47308594 0.2571875 2.94617188 -0.640625 3.43359375 C-8.96840809 8.03115055 -16.53662554 13.09491252 -24 19 C-24.66 17.68 -25.32 16.36 -26 15 C-23.07047296 12.69523944 -20.07404266 10.85398818 -16.796875 9.08203125 C-15.32734375 8.28442383 -15.32734375 8.28442383 -13.828125 7.47070312 C-12.81234375 6.92349609 -11.7965625 6.37628906 -10.75 5.8125 C-9.71875 5.25369141 -8.6875 4.69488281 -7.625 4.11914062 C-5.08486304 2.7432331 -2.54316507 1.3703 0 0 Z " fill="#DDDEE5" transform="translate(543,717)"/>
<path d="M0 0 C4.68005595 2.87043432 8.17934658 6.02835787 11.8125 10.125 C12.30169922 10.66253906 12.79089844 11.20007813 13.29492188 11.75390625 C16.84712248 15.69424495 16.84712248 15.69424495 18 18 C18 14.04 18 10.08 18 6 C20.43739209 10.87478418 21.15459795 14.58907172 21 20 C20.34 20.33 19.68 20.66 19 21 C13.81944969 16.898731 9.87339597 12.54497103 5.89453125 7.26953125 C4.09578926 4.93755399 4.09578926 4.93755399 1.76171875 3.32421875 C1.18035156 2.88722656 0.59898437 2.45023437 0 2 C0 1.34 0 0.68 0 0 Z " fill="#86DDD8" transform="translate(309,375)"/>
<path d="M0 0 C1.875 0.1875 1.875 0.1875 4 1 C5.3125 3.375 5.3125 3.375 6 6 C5.67 6.99 5.34 7.98 5 9 C5.26527803 11.69699332 5.59138409 14.32634037 6 17 C6.144375 18.134375 6.28875 19.26875 6.4375 20.4375 C6.623125 21.283125 6.80875 22.12875 7 23 C7.66 23.33 8.32 23.66 9 24 C8.01 24 7.02 24 6 24 C1.98164536 19.34485692 1.39314362 15.62085566 1.3125 9.75 C1.37407423 4.7212509 1.37407423 4.7212509 0 0 Z " fill="#3B5479" transform="translate(348,796)"/>
<path d="M0 0 C0.84820313 0.20496094 1.69640625 0.40992188 2.5703125 0.62109375 C12.92830837 3.00001808 23.4249698 5.10226504 34 3 C34 3.66 34 4.32 34 5 C24.68647124 8.10450959 9.86285267 7.02555738 1 3 C0.67 2.01 0.34 1.02 0 0 Z " fill="#403768" transform="translate(536,805)"/>
<path d="M0 0 C10.89 0 21.78 0 33 0 C33 0.33 33 0.66 33 1 C26.00413955 2.50970399 19.14228265 3.23265507 12 3.3125 C11.27047119 3.32990234 10.54094238 3.34730469 9.78930664 3.36523438 C5.08399509 3.36086192 3.96315045 2.97236283 0 0 Z " fill="#352F63" transform="translate(532,821)"/>
<path d="M0 0 C1.06669922 0.00322266 2.13339844 0.00644531 3.23242188 0.00976562 C4.29525391 -0.00634766 5.35808594 -0.02246094 6.453125 -0.0390625 C7.98163086 -0.0400293 7.98163086 -0.0400293 9.54101562 -0.04101562 C10.4761499 -0.04399658 11.41128418 -0.04697754 12.37475586 -0.05004883 C14.79492188 0.32226562 14.79492188 0.32226562 17.79492188 3.32226562 C3.93492187 2.82726562 3.93492187 2.82726562 -10.20507812 2.32226562 C-7.16404247 -0.71877003 -4.15666727 0.02895715 0 0 Z " fill="#2D6383" transform="translate(358.205078125,693.677734375)"/>
<path d="M0 0 C10.89 0 21.78 0 33 0 C33 0.33 33 0.66 33 1 C9.00483611 3.80054712 9.00483611 3.80054712 0 1 C0 0.67 0 0.34 0 0 Z " fill="#2A3863" transform="translate(390,821)"/>
<path d="M0 0 C0.33 0 0.66 0 1 0 C1.33893581 3.83285925 1.67012787 7.66635091 2 11.5 C2.14308594 13.11648438 2.14308594 13.11648438 2.2890625 14.765625 C2.78162326 20.53562244 3.11244203 26.20923553 3 32 C2.34 32 1.68 32 1 32 C-0.22399452 25.35958878 -0.11227753 18.79778303 -0.0625 12.0625 C-0.05798828 10.90169922 -0.05347656 9.74089844 -0.04882812 8.54492188 C-0.03710647 5.69656066 -0.0206976 2.84830778 0 0 Z " fill="#46919C" transform="translate(354,583)"/>
<path d="M0 0 C0.33 0 0.66 0 1 0 C1.36593337 4.54079872 1.71567452 9.08270504 2.0625 13.625 C2.16626953 14.91019531 2.27003906 16.19539062 2.37695312 17.51953125 C2.51713867 19.38544922 2.51713867 19.38544922 2.66015625 21.2890625 C2.74918213 22.43068848 2.83820801 23.57231445 2.92993164 24.74853516 C2.99953614 27.97847474 2.63827985 30.83999158 2 34 C1.67 34 1.34 34 1 34 C0.04622816 29.99679847 -0.1157616 26.27788253 -0.09765625 22.16796875 C-0.09443359 20.87568359 -0.09121094 19.58339844 -0.08789062 18.25195312 C-0.07953665 16.89713474 -0.07107172 15.54231703 -0.0625 14.1875 C-0.05748 12.81315265 -0.05291797 11.43880355 -0.04882812 10.06445312 C-0.03705668 6.70959076 -0.02061283 3.35481779 0 0 Z " fill="#1D7B8D" transform="translate(301,629)"/>
<path d="M0 0 C4.27094454 6.40641681 3.27726754 15.37417651 3.4296875 22.88085938 C3.55417297 29.04986093 3.55417297 29.04986093 7 34 C6.67 34.66 6.34 35.32 6 36 C3.54597656 34.28071412 2.16723198 32.87020714 1.59228516 29.87841797 C1.41401384 27.22735101 1.34192581 24.59439543 1.3125 21.9375 C1.25950864 20.0468267 1.20483597 18.15619973 1.1484375 16.265625 C1.12620117 15.35876953 1.10396484 14.45191406 1.08105469 13.51757812 C0.93536738 8.99249512 0.49513407 4.49834569 0 0 Z " fill="#74C6C2" transform="translate(316,459)"/>
<path d="M0 0 C1.32 0.33 2.64 0.66 4 1 C3.921875 2.765625 3.921875 2.765625 3 5 C0.7397791 6.45553493 -1.33940633 7.61301959 -3.75 8.75 C-4.37132812 9.06582031 -4.99265625 9.38164063 -5.6328125 9.70703125 C-9.21979383 11.45511709 -12.00442958 12.39650699 -16 12 C-12.12136636 9.41424424 -7.98911553 8.08959685 -3.6171875 6.51171875 C-0.75083971 5.24520419 -0.75083971 5.24520419 -0.1328125 2.33203125 C-0.08898437 1.56246094 -0.04515625 0.79289063 0 0 Z " fill="#3B2F65" transform="translate(589,797)"/>
<path d="M0 0 C-3.08154604 2.05436403 -5.91403132 3.20114677 -9.375 4.5 C-14.08896507 6.26624508 -14.08896507 6.26624508 -18.7265625 8.21875 C-21 9 -21 9 -24 8 C-16.48505994 3.50524862 -9.01178309 -0.69321408 0 0 Z " fill="#394672" transform="translate(461,755)"/>
<path d="M0 0 C0.66 0.33 1.32 0.66 2 1 C-8.63914373 12.02446483 -8.63914373 12.02446483 -15 16 C-15.66 16 -16.32 16 -17 16 C-17 15.34 -17 14.68 -17 14 C-15.68 13.67 -14.36 13.34 -13 13 C-13 12.34 -13 11.68 -13 11 C-11.171875 9.4140625 -11.171875 9.4140625 -8.75 7.625 C-5.576007 5.27043656 -2.73926438 2.85235328 0 0 Z " fill="#362A60" transform="translate(617,809)"/>
<path d="M0 0 C4.07265297 7.59638315 5.41954857 15.46917899 5 24 C4.67 24 4.34 24 4 24 C3.32338 21.31466436 2.65853879 18.627275 2 15.9375 C1.80921875 15.18533203 1.6184375 14.43316406 1.421875 13.65820312 C0.2858904 8.97226664 -0.20486266 4.82067454 0 0 Z " fill="#6BCFC7" transform="translate(329,431)"/>
<path d="M0 0 C0.66 0 1.32 0 2 0 C3.86132673 4.70461323 4.2509496 8.8757696 4.125 13.875 C4.11597656 14.56335938 4.10695313 15.25171875 4.09765625 15.9609375 C4.07432513 17.64077838 4.03846326 19.32043746 4 21 C3.67 21 3.34 21 3 21 C2.49576443 18.25071558 1.99646574 15.50068857 1.5 12.75 C1.35691406 11.97269531 1.21382813 11.19539063 1.06640625 10.39453125 C0.93105469 9.64042969 0.79570312 8.88632812 0.65625 8.109375 C0.46772461 7.07248535 0.46772461 7.07248535 0.27539062 6.01464844 C0 4 0 4 0 0 Z " fill="#B8E6E4" transform="translate(294,258)"/>
<path d="M0 0 C3.8809456 1.29364853 4.56689295 2.90703342 6.75 6.3125 C7.38421875 7.27800781 8.0184375 8.24351562 8.671875 9.23828125 C10 12 10 12 9.703125 14.35546875 C9.47109375 14.89816406 9.2390625 15.44085938 9 16 C7.99466333 14.37829621 6.99588093 12.75252763 6 11.125 C5.443125 10.22007812 4.88625 9.31515625 4.3125 8.3828125 C3 6 3 6 3 4 C2.01 4.33 1.02 4.66 0 5 C0 3.35 0 1.7 0 0 Z " fill="#9CE3DE" transform="translate(297,264)"/>
<path d="M0 0 C-4.95 3.3 -9.9 6.6 -15 10 C-15 9.01 -15 8.02 -15 7 C-13.390625 5.46484375 -13.390625 5.46484375 -11.25 3.9375 C-10.55390625 3.43089844 -9.8578125 2.92429687 -9.140625 2.40234375 C-3.62769231 -1.20923077 -3.62769231 -1.20923077 0 0 Z " fill="#464271" transform="translate(545,734)"/>
<path d="M0 0 C2.09671373 3.14507059 2.97717438 5.76825249 4.0625 9.375 C4.40410156 10.49648438 4.74570312 11.61796875 5.09765625 12.7734375 C5.86288889 15.50972389 6.4925556 18.20644008 7 21 C6.34 21 5.68 21 5 21 C4.15774 18.44013121 3.32601449 15.87760985 2.5 13.3125 C2.14228516 12.2306543 2.14228516 12.2306543 1.77734375 11.12695312 C0.55601006 7.30592343 -0.32075577 4.06557944 0 0 Z " fill="#8DE0D9" transform="translate(317,342)"/>
<path d="M0 0 C0.33 0 0.66 0 1 0 C0.88590318 2.10478604 0.75834639 4.20884577 0.625 6.3125 C0.55539062 7.48425781 0.48578125 8.65601563 0.4140625 9.86328125 C0 13 0 13 -2 16 C-2 13.03 -2 10.06 -2 7 C-2.99 7.66 -3.98 8.32 -5 9 C-3.75471468 5.55151758 -2.38532951 2.80016942 0 0 Z " fill="#D6D6E6" transform="translate(655,260)"/>
<path d="M0 0 C1.32 0.33 2.64 0.66 4 1 C6.48612064 5.52829116 7.38279888 8.76841536 7 14 C5.20931427 11.3139714 4.33944209 9.3373411 3.375 6.3125 C2.98441406 5.10013672 2.98441406 5.10013672 2.5859375 3.86328125 C2.39257812 3.24839844 2.19921875 2.63351562 2 2 C1.67 4.64 1.34 7.28 1 10 C0.67 10 0.34 10 0 10 C0 6.7 0 3.4 0 0 Z " fill="#37A8A8" transform="translate(318,516)"/>
<path d="M0 0 C1.33795195 2.6759039 0.466575 4.04142245 -0.38671875 6.78125 C-1.58458597 11.11493523 -2.24716132 15.57106605 -3 20 C-3.84658846 16.891433 -4 14.21904007 -4 11 C-4.33 10.34 -4.66 9.68 -5 9 C-4.00390625 6.8359375 -4.00390625 6.8359375 -2.5625 4.375 C-2.08941406 3.55773437 -1.61632812 2.74046875 -1.12890625 1.8984375 C-0.75636719 1.27195312 -0.38382813 0.64546875 0 0 Z " fill="#9791A6" transform="translate(588,527)"/>
<path d="M0 0 C0.66 0.66 1.32 1.32 2 2 C0.09273249 3.20253816 -1.8262012 4.38658949 -3.75 5.5625 C-4.81734375 6.22378906 -5.8846875 6.88507812 -6.984375 7.56640625 C-10 9 -10 9 -14 8 C-9.38 5.36 -4.76 2.72 0 0 Z " fill="#C7C7D2" transform="translate(543,717)"/>
<path d="M0 0 C0.66 0.33 1.32 0.66 2 1 C2 1.99 2 2.98 2 4 C0.3767313 4.6708712 -1.24867578 5.33657029 -2.875 6 C-4.23238281 6.556875 -4.23238281 6.556875 -5.6171875 7.125 C-8 8 -8 8 -10 8 C-10 7.34 -10 6.68 -10 6 C-7.8828125 4.45703125 -7.8828125 4.45703125 -5.125 2.8125 C-4.22007812 2.26207031 -3.31515625 1.71164062 -2.3828125 1.14453125 C-1.20332031 0.57798828 -1.20332031 0.57798828 0 0 Z " fill="#DAD9E1" transform="translate(554,710)"/>
<path d="M0 0 C5.01202555 2.98334854 8.38748484 6.43951988 12 11 C7.74120455 10.20147585 6.61094719 8.42686818 4 5 C3.2575 4.443125 2.515 3.88625 1.75 3.3125 C1.1725 2.879375 0.595 2.44625 0 2 C0 1.34 0 0.68 0 0 Z " fill="#90DFD9" transform="translate(309,375)"/>
<path d="M0 0 C0.66 0 1.32 0 2 0 C2.66 1.98 3.32 3.96 4 6 C1.03 5.67 -1.94 5.34 -5 5 C-2 3 -2 3 0 3 C0 2.01 0 1.02 0 0 Z " fill="#4F7E95" transform="translate(374,681)"/>
<path d="M0 0 C-4.95 2.475 -4.95 2.475 -10 5 C-10.33 4.34 -10.66 3.68 -11 3 C-9.73581754 2.30034557 -8.46334598 1.61565237 -7.1875 0.9375 C-6.47980469 0.55464844 -5.77210938 0.17179688 -5.04296875 -0.22265625 C-3 -1 -3 -1 0 0 Z " fill="#2B426C" transform="translate(387,785)"/>
<path d="M0 0 C2.5519126 4.59344268 3.14901031 8.78463905 3 14 C-0.16470185 9.25294723 -0.10927475 5.68228705 0 0 Z " fill="#7BDBD4" transform="translate(327,381)"/>
<path d="M0 0 C0.66 0.33 1.32 0.66 2 1 C0.92892883 1.86949317 -0.15745944 2.72014205 -1.25 3.5625 C-1.85328125 4.03816406 -2.4565625 4.51382813 -3.078125 5.00390625 C-5 6 -5 6 -7.234375 5.65234375 C-7.81703125 5.43707031 -8.3996875 5.22179687 -9 5 C-7.54735962 4.1361871 -6.0876837 3.28419546 -4.625 2.4375 C-3.40683594 1.72400391 -3.40683594 1.72400391 -2.1640625 0.99609375 C-1.44992187 0.66738281 -0.73578125 0.33867188 0 0 Z " fill="#493E6F" transform="translate(597,825)"/>
<path d="M0 0 C0.33 0 0.66 0 1 0 C1.02694851 1.95825873 1.04637218 3.91662226 1.0625 5.875 C1.07410156 6.96554687 1.08570313 8.05609375 1.09765625 9.1796875 C1 12 1 12 0 14 C-0.66 14 -1.32 14 -2 14 C-1.34 9.38 -0.68 4.76 0 0 Z " fill="#BAB8C9" transform="translate(611,628)"/>
<path d="M0 0 C0.33 0 0.66 0 1 0 C1 1.98 1 3.96 1 6 C0.34 6 -0.32 6 -1 6 C-2.62514468 7.45833358 -2.62514468 7.45833358 -4 9 C-2.25 2.25 -2.25 2.25 0 0 Z " fill="#766C8E" transform="translate(584,537)"/>
<path d="M0 0 C0.66 0.33 1.32 0.66 2 1 C-0.31 3.64 -2.62 6.28 -5 9 C-5 4.61031544 -2.87194899 3.23094261 0 0 Z " fill="#4B4374" transform="translate(539,756)"/>
<path d="M0 0 C1.31223496 3.93670488 0.24296256 6.12488144 -1 10 C-1.66 10 -2.32 10 -3 10 C-2.25 2.25 -2.25 2.25 0 0 Z " fill="#34748D" transform="translate(308,723)"/>
<path d="M0 0 C0.556875 0.226875 1.11375 0.45375 1.6875 0.6875 C-2.74326923 3.76442308 -2.74326923 3.76442308 -5.625 3.375 C-6.4603125 3.0346875 -6.4603125 3.0346875 -7.3125 2.6875 C-2.88173077 -0.38942308 -2.88173077 -0.38942308 0 0 Z " fill="#2D3D69" transform="translate(395.3125,779.3125)"/>
<path d="M0 0 C2.5 1.125 2.5 1.125 5 3 C5.3125 6.1875 5.3125 6.1875 5 9 C2.67527795 6.14693203 1.2491742 3.45925163 0 0 Z " fill="#34B1AC" transform="translate(320,493)"/>
<path d="M0 0 C-1.29299694 2.88437779 -2.65941363 4.87219421 -5 7 C-5 3 -5 3 -3.625 1.25 C-2 0 -2 0 0 0 Z " fill="#6F6385" transform="translate(604,788)"/>
<path d="M0 0 C0.99 0 1.98 0 3 0 C3 0.66 3 1.32 3 2 C4.65 2.33 6.3 2.66 8 3 C8 3.66 8 4.32 8 5 C2.25 3.125 2.25 3.125 0 2 C0 1.34 0 0.68 0 0 Z " fill="#5F5481" transform="translate(600,723)"/>
<path d="M0 0 C0.33 0 0.66 0 1 0 C2.6290678 4.79137588 3.20577428 8.05632546 2 13 C1.67 13 1.34 13 1 13 C-0.10228696 8.59085217 -0.07654536 4.51617599 0 0 Z " fill="#6CA4B0" transform="translate(301,650)"/>
<path d="M0 0 C0.12375 0.639375 0.2475 1.27875 0.375 1.9375 C0.58125 2.618125 0.7875 3.29875 1 4 C1.66 4.33 2.32 4.66 3 5 C1.515 7.475 1.515 7.475 0 10 C-1.2380014 6.42355152 -0.74926071 3.66305234 0 0 Z " fill="#EBEAF4" transform="translate(619,399)"/>
</svg>
